<svg id="Capa_1" enable-background="new 0 0 512 512" height="512" viewBox="0 0 512 512" width="512" xmlns="http://www.w3.org/2000/svg"><g><path d="m15.123 342.892c-9.584-26.564-14.899-55.168-15.117-84.985-1.028-141.009 114.982-257.907 255.995-257.907 141.384 0 255.999 114.616 255.999 256 0 48.05-13.238 93.008-36.266 131.426h-396.962c-28.465 0-53.988-17.76-63.649-44.534z" fill="#1ed688"/><path d="m380 110-54.783 180h-325.217l60-180z" fill="#d3d3d8"/><path d="m420 110-54.783 290h-303.167c-11.46 0-22.07-6.092-27.808-16.012-7.921-13.695-14.61-28.192-19.915-43.339l55.673-230.649z" fill="#b9b9be"/><path d="m480.018 380c-43.667 78.719-127.62 132-224.018 132s-180.351-53.281-224.018-132z" fill="#7c3f2c"/><path d="m276.5 445.167c0-2.761 2.239-5 5-5h63.333c2.761 0 5 2.239 5 5 0 2.761-2.239 5-5 5h-63.333c-2.761 0-5-2.239-5-5z" fill="#8c96dd"/><path d="m120.167 445.167c0-8.284 6.716-15 15-15h100c8.284 0 15 6.716 15 15 0 8.284-6.716 15-15 15h-100c-8.285 0-15-6.716-15-15z" fill="#ff9f22"/><path d="m210.167 445.167c0-8.284 6.716-15 15-15h90c8.284 0 15 6.716 15 15 0 8.284-6.716 15-15 15h-90c-8.285 0-15-6.716-15-15z" fill="#ffb52d"/><path d="m80.167 445.167c0-8.284 6.716-15 15-15h25c5.523 0 10 4.477 10 10v10c0 5.523-4.477 10-10 10h-25c-8.285 0-15-6.716-15-15z" fill="#e5554e"/><path d="m120.167 460.167v-30h20v30z" fill="#dcd2cd"/><path d="m435.217 110c-1.027 92.528 15.138 184.443 47.673 271.069l7.11 18.931h-365.217l-3.938-10.125c-33.385-85.844-50.615-177.119-50.821-269.226l-.024-10.649z" fill="#ececf1"/><path d="m154.783 400h-30l-3.938-10.125c-33.385-85.844-50.615-177.119-50.821-269.226l-.024-10.649h30l.024 10.649c.206 92.107 17.436 183.382 50.821 269.226z" fill="#d3d3d8"/><path d="m210.915 130h-150.915c-5.523 0-10-4.477-10-10v-40c0-5.523 4.477-10 10-10h150.915c5.523 0 10 4.477 10 10v40c0 5.523-4.477 10-10 10z" fill="#d63030"/><path d="m440 130h-230c-5.523 0-10-4.477-10-10v-40c0-5.523 4.477-10 10-10h230c5.523 0 10 4.477 10 10v40c0 5.523-4.477 10-10 10z" fill="#e5554e"/><path d="m340 65v30c0 2.761-2.239 5-5 5-2.761 0-5-2.239-5-5v-30c0-2.761 2.239-5 5-5 2.761 0 5 2.239 5 5zm15-5c-2.761 0-5 2.239-5 5v30c0 2.761 2.239 5 5 5 2.761 0 5-2.239 5-5v-30c0-2.761-2.239-5-5-5zm20 0c-2.761 0-5 2.239-5 5v30c0 2.761 2.239 5 5 5 2.761 0 5-2.239 5-5v-30c0-2.761-2.239-5-5-5zm20 0c-2.761 0-5 2.239-5 5v30c0 2.761 2.239 5 5 5 2.761 0 5-2.239 5-5v-30c0-2.761-2.239-5-5-5zm-290 0c-2.761 0-5 2.239-5 5v30c0 2.761 2.239 5 5 5 2.761 0 5-2.239 5-5v-30c0-2.761-2.239-5-5-5zm20 0c-2.761 0-5 2.239-5 5v30c0 2.761 2.239 5 5 5 2.761 0 5-2.239 5-5v-30c0-2.761-2.239-5-5-5zm20 0c-2.761 0-5 2.239-5 5v30c0 2.761 2.239 5 5 5 2.761 0 5-2.239 5-5v-30c0-2.761-2.239-5-5-5zm20 0c-2.761 0-5 2.239-5 5v30c0 2.761 2.239 5 5 5 2.761 0 5-2.239 5-5v-30c0-2.761-2.239-5-5-5z" fill="#edc472"/><path d="m340 65v10c0 2.761-2.239 5-5 5-2.761 0-5-2.239-5-5v-10c0-2.761 2.239-5 5-5 2.761 0 5 2.239 5 5zm15-5c-2.761 0-5 2.239-5 5v10c0 2.761 2.239 5 5 5 2.761 0 5-2.239 5-5v-10c0-2.761-2.239-5-5-5zm20 0c-2.761 0-5 2.239-5 5v10c0 2.761 2.239 5 5 5 2.761 0 5-2.239 5-5v-10c0-2.761-2.239-5-5-5zm20 0c-2.761 0-5 2.239-5 5v10c0 2.761 2.239 5 5 5 2.761 0 5-2.239 5-5v-10c0-2.761-2.239-5-5-5zm-290 0c-2.761 0-5 2.239-5 5v10c0 2.761 2.239 5 5 5 2.761 0 5-2.239 5-5v-10c0-2.761-2.239-5-5-5zm20 0c-2.761 0-5 2.239-5 5v10c0 2.761 2.239 5 5 5 2.761 0 5-2.239 5-5v-10c0-2.761-2.239-5-5-5zm20 0c-2.761 0-5 2.239-5 5v10c0 2.761 2.239 5 5 5 2.761 0 5-2.239 5-5v-10c0-2.761-2.239-5-5-5zm20 0c-2.761 0-5 2.239-5 5v10c0 2.761 2.239 5 5 5 2.761 0 5-2.239 5-5v-10c0-2.761-2.239-5-5-5z" fill="#ffde91"/><path d="m364.938 357c-21.606-64.309-34.354-131.259-37.896-199h68.185c3.603 67.72 16.408 134.671 38.09 199zm-62.628-3.011c-20.743-62.418-33.145-127.272-36.91-192.874-.1-1.748-1.54-3.114-3.291-3.114h-61.935c-1.7 0-3.057 1.43-2.961 3.127 3.71 65.675 16.074 130.577 36.774 193.022.564 1.702 2.163 2.851 3.956 2.851h62.2c1.562-.001 2.66-1.529 2.167-3.012z" fill="#ffc14f"/><path d="m299.938 357c-21.606-64.309-34.354-131.259-37.896-199h68.185c3.603 67.72 16.408 134.671 38.09 199zm-61.621 0c-21.682-64.329-34.487-131.28-38.09-199h-68.185c3.542 67.741 16.29 134.691 37.896 199z" fill="#ffde91"/><path d="m210 335c0 2.761-2.239 5-5 5h-20c-2.761 0-5-2.239-5-5s2.239-5 5-5h20c2.761 0 5 2.239 5 5zm-18-60c0-2.761-2.239-5-5-5h-20c-2.761 0-5 2.239-5 5s2.239 5 5 5h20c2.761 0 5-2.239 5-5zm-37-85h20c2.761 0 5-2.239 5-5s-2.239-5-5-5h-20c-2.761 0-5 2.239-5 5s2.239 5 5 5zm31 55c0-2.761-2.239-5-5-5h-20c-2.761 0-5 2.239-5 5s2.239 5 5 5h20c2.761 0 5-2.239 5-5zm-6-30c0-2.761-2.239-5-5-5h-20c-2.761 0-5 2.239-5 5s2.239 5 5 5h20c2.761 0 5-2.239 5-5zm108.333-25h20c2.761 0 5-2.239 5-5s-2.239-5-5-5h-20c-2.761 0-5 2.239-5 5s2.239 5 5 5zm45 115c0-2.761-2.239-5-5-5h-20c-2.761 0-5 2.239-5 5s2.239 5 5 5h20c2.762 0 5-2.239 5-5zm5 25h-20c-2.761 0-5 2.239-5 5s2.239 5 5 5h20c2.761 0 5-2.239 5-5s-2.238-5-5-5zm-13-55c0-2.761-2.239-5-5-5h-20c-2.761 0-5 2.239-5 5s2.239 5 5 5h20c2.762 0 5-2.239 5-5zm-15.978-55c2.761 0 5-2.239 5-5s-2.239-5-5-5h-20c-2.761 0-5 2.239-5 5s2.239 5 5 5z" fill="#ff9f22"/><path d="m200 305c0-2.761-2.239-5-5-5h-20c-2.761 0-5 2.239-5 5s2.239 5 5 5h20c2.761 0 5-2.239 5-5zm119.333-60c0-2.761-2.239-5-5-5h-20c-2.761 0-5 2.239-5 5s2.239 5 5 5h20c2.762 0 5-2.239 5-5z" fill="#2b3894"/><path d="m241.667 190h-20c-2.761 0-5-2.239-5-5 0-2.761 2.239-5 5-5h20c2.761 0 5 2.239 5 5 0 2.761-2.239 5-5 5zm138.333-5c0-2.761-2.239-5-5-5h-20c-2.761 0-5 2.239-5 5 0 2.761 2.239 5 5 5h20c2.761 0 5-2.239 5-5zm-131.787 30c0-2.761-2.239-5-5-5h-20c-2.761 0-5 2.239-5 5 0 2.761 2.239 5 5 5h20c2.761 0 5-2.239 5-5zm133.317 0c0-2.761-2.239-5-5-5h-20c-2.761 0-5 2.239-5 5 0 2.761 2.239 5 5 5h20c2.762 0 5-2.239 5-5zm-128.213 30c0-2.761-2.239-5-5-5h-20c-2.761 0-5 2.239-5 5 0 2.761 2.239 5 5 5h20c2.762 0 5-2.239 5-5zm132.683 0c0-2.761-2.239-5-5-5h-20c-2.761 0-5 2.239-5 5 0 2.761 2.239 5 5 5h20c2.761 0 5-2.239 5-5zm-127.333 30c0-2.761-2.239-5-5-5h-20c-2.761 0-5 2.239-5 5 0 2.761 2.239 5 5 5h20c2.761 0 5-2.239 5-5zm133.333 0c0-2.761-2.239-5-5-5h-20c-2.761 0-5 2.239-5 5 0 2.761 2.239 5 5 5h20c2.761 0 5-2.239 5-5zm-125.333 30c0-2.761-2.239-5-5-5h-20c-2.761 0-5 2.239-5 5 0 2.761 2.239 5 5 5h20c2.761 0 5-2.239 5-5zm133.333 0c0-2.761-2.239-5-5-5h-20c-2.761 0-5 2.239-5 5 0 2.761 2.239 5 5 5h20c2.761 0 5-2.239 5-5zm-123.333 30c0-2.761-2.239-5-5-5h-20c-2.761 0-5 2.239-5 5 0 2.761 2.239 5 5 5h20c2.761 0 5-2.239 5-5zm133.333 0c0-2.761-2.239-5-5-5h-20c-2.761 0-5 2.239-5 5 0 2.761 2.239 5 5 5h20c2.761 0 5-2.239 5-5z" fill="#dd7d00"/><path d="m306.021 273.684c-14.102 0-27.437-2.698-37.551-7.599-11.265-5.459-17.47-13.144-17.47-21.638s6.204-16.179 17.471-21.638c10.114-4.9 23.449-7.6 37.551-7.6s27.437 2.699 37.55 7.6c11.267 5.459 17.471 13.144 17.471 21.638s-6.204 16.179-17.471 21.638c-10.114 4.9-23.449 7.599-37.551 7.599zm0-48.474c-26.532 0-45.021 10.139-45.021 19.237s18.489 19.236 45.021 19.236c26.531 0 45.021-10.138 45.021-19.236s-18.489-19.237-45.021-19.237zm-120.021 108.761c-14.102 0-27.437-2.698-37.551-7.599-11.266-5.459-17.471-13.144-17.471-21.638s6.204-16.179 17.471-21.638c10.114-4.9 23.449-7.6 37.551-7.6s27.437 2.699 37.55 7.6c11.267 5.459 17.471 13.144 17.471 21.638s-6.204 16.179-17.471 21.638c-10.113 4.901-23.448 7.599-37.55 7.599zm0-48.473c-26.532 0-45.021 10.139-45.021 19.237s18.489 19.236 45.021 19.236c26.531 0 45.021-10.138 45.021-19.236s-18.489-19.237-45.021-19.237z" fill="#3342ae"/></g></svg>